<svg xmlns="http://www.w3.org/2000/svg" viewBox="0 0 1280 1024"  xmlns:xlink="http://www.w3.org/1999/xlink">>
  <defs>
    <g id="feed">
      <path d="M10,15l75,0l0,75l-75,0z" fill="#F80"
        stroke-linejoin="round" stroke-width="20" stroke="#F80"/>
      <circle cx="15" cy="82" r="6" fill="#FFF"/>
      <path d="M35,82s0-20-20-20 M55,82s0-40-40-40 M75,82s0-60-60-60"
        stroke-linecap="round" stroke-width="12" stroke="#FFF" fill="none"/>
    </g>

    <g id="entry">
      <g fill="none">
       <ellipse stroke="#689" rx="3" ry="22"/>
       <ellipse stroke="#eb4" rx="3" ry="22" transform="rotate(-66)"/>
       <ellipse stroke="#8ac" rx="3" ry="22" transform="rotate(66)"/>
       <circle  stroke="#451" r="22"/>
      </g>
      <g fill="#689" stroke="#FFF">
       <circle fill="#8ac" r="6.5"/>
       <circle cy="-22" r="4.5"/>
       <circle cx="-20" cy="9" r="4.5"/>
       <circle cx="20" cy="9" r="4.5"/>
      </g>
    </g>
    <g id="node" stroke="none">
      <circle r="18" fill="#049"/>
      <path d="M-14,7a16,16,0,0,1,22-21a15,15,0,0,0-14,2a3,3,0,1,1-5,5
        a15,15,0,0,0-3,14" fill="#FFF"/>
    </g>
    <path d="M-14-6a44,62,0,0,0,28,0l0,12a44,62,0,0,0-28,0z"
      fill="#049" id="arc"/>
  </defs>

  <rect height="1024" width="1280" fill="#0D0"/>

  <use xlink:href="#feed" x="220" y="30"/>
  <use xlink:href="#feed" x="150" y="60"/>
  <use xlink:href="#feed" x="100" y="100"/>
  <use xlink:href="#feed" x="60" y="150"/>
  <use xlink:href="#feed" x="30" y="220"/>

  <g fill="#F00" stroke-linejoin="round" stroke-width="12" stroke="#F88">
    <path d="M50,800l0,180l1000,0l0-180z" fill="#FFF"/>
    <path d="M150,330l400,0l0,300l-400,0z"/>
    <path d="M750,200l200,0 l0,110l100,0l0,60l-100,0 l0,40l100,0l0,60l-100,0
      l0,40l100,0l0,60l-100,0 l0,130l70,70l-340,0l70,-70z"/> 
  </g>

  <path d="M1080,360l100,0l0,-70l-30,-30l-70,0z" fill="#FFF"/>
  <path d="M1180,290l-30,0l0,-30" fill="none" stroke="#000"/>
  <use xlink:href="#feed" x="1080" y="380"/>

  <g transform="translate(1080,500)">
  <use xlink:href="#arc" transform="translate(76,50) rotate(90)"/>
  <use xlink:href="#arc" transform="translate(50,35) rotate(-30)"/>
  <use xlink:href="#arc" transform="translate(50,65) rotate(30)"/>
  <use xlink:href="#node" transform="translate(24,50)"/>
  <use xlink:href="#node" transform="translate(76,80)"/>
  <use xlink:href="#node" transform="translate(76,20)"/>
  </g>

  <path d="M260,150s100,60,90,280 M170,270s150,0,180,120
           M200,200s150,0,150,200l0,450m-100,-70l100,70l100,-70
           M850,807l0,-200m-70,70l70,-70l70,70"
    stroke="#000" fill="none" stroke-width="40"/>

  <ellipse cx="350" cy="368" fill="#FFF" rx="80" ry="30"/>
  <ellipse cx="850" cy="238" fill="#FFF" rx="80" ry="30"/>
  <g font-size="32" fill="#FFF" text-anchor="middle">
    <text x="350" y="380" fill="#F00">Spider</text>
    <text x="350" y="460">Universal Feed Parser</text>
    <text x="350" y="530">html5lib</text>
    <text x="350" y="600">Reconstitute</text>
    <text x="350" y="750">Filter(s)</text>
    <text x="850" y="250" fill="#F00">Splice</text>
    <text x="950" y="350">Template</text>
    <text x="950" y="450">Template</text>
    <text x="950" y="550">Template</text>
    <text x="1126" y="330" fill="#000">HTML</text>
  </g>


  <use xlink:href="#entry" x="100" y="900"/>
  <use xlink:href="#entry" x="180" y="950"/>
  <use xlink:href="#entry" x="200" y="850"/>
  <use xlink:href="#entry" x="290" y="920"/>
  <use xlink:href="#entry" x="400" y="900"/>
  <use xlink:href="#entry" x="470" y="840"/>
  <use xlink:href="#entry" x="500" y="930"/>
  <use xlink:href="#entry" x="570" y="870"/>
  <use xlink:href="#entry" x="620" y="935"/>
  <use xlink:href="#entry" x="650" y="835"/>
  <use xlink:href="#entry" x="690" y="900"/>
  <use xlink:href="#entry" x="720" y="835"/>
  <use xlink:href="#entry" x="730" y="950"/>
  <use xlink:href="#entry" x="760" y="900"/>
  <use xlink:href="#entry" x="790" y="835"/>
  <use xlink:href="#entry" x="800" y="950"/>
  <use xlink:href="#entry" x="830" y="900"/>
  <use xlink:href="#entry" x="860" y="835"/>
  <use xlink:href="#entry" x="870" y="950"/>
  <use xlink:href="#entry" x="900" y="900"/>
  <use xlink:href="#entry" x="930" y="835"/>
  <use xlink:href="#entry" x="940" y="950"/>
  <use xlink:href="#entry" x="970" y="900"/>
  <use xlink:href="#entry" x="1000" y="835"/>
  <use xlink:href="#entry" x="1010" y="950"/>

</svg>
